<svg xmlns="http://www.w3.org/2000/svg" viewBox="0 0 610.9 123.72"><defs><style>.cls-1{fill:#fff;}</style></defs><title>MEC In</title><g id="レイヤー_2" data-name="レイヤー 2"><g id="レイヤー_1-2" data-name="レイヤー 1"><path class="cls-1" d="M65.79,2.09v98.09H51.53V50.35l-13.6,49.83H27.73L14.26,50.75v49.43H0V2.09H14L32.83,73.63l19-71.54Z"/><path class="cls-1" d="M121.34,17.4H96.49V41.46h21.32v15.3H96.49V84.88h24.85v15.3H81.19V2.09h40.15Z"/><path class="cls-1" d="M181.14,78.08c0,14.52-9.42,24.2-23.93,24.2S133.4,92.6,133.4,78.08V24.2C133.4,9.68,142.69,0,157.21,0s23.93,9.68,23.93,24.2v4.57h-15.3V24.2c0-5.37-3.27-8.9-8.63-8.9s-8.5,3.53-8.5,8.9V78.08c0,5.36,3.13,8.89,8.5,8.89s8.63-3.53,8.63-8.89V73.37h15.3Z"/><path class="cls-1" d="M216.19,100.18V2.09h15.3v98.09Z"/><path class="cls-1" d="M290.73,49.7v50.48H276.47V49.7c0-5.1-3.14-8.5-8.24-8.5s-8.37,3.4-8.37,8.5v50.48H245.6V28.51h14.26v3.93c3.14-3.8,7.59-5.63,12.82-5.63C283.93,26.81,290.73,35.44,290.73,49.7Z"/><path class="cls-1" d="M348.31,2.09v98.09H334.05V96.65c-3,3.4-7.32,5.23-12.81,5.23-9.55,0-18.44-5.49-18.44-22.88V49.7c0-17.26,8.89-22.89,18.44-22.89,5.49,0,9.8,1.83,12.81,5.23V2.09ZM334.05,79V49.7c0-5.1-3.14-8.5-8.5-8.5s-8.37,3.4-8.37,8.5V79c0,5.1,3.14,8.63,8.37,8.63S334.05,84.1,334.05,79Z"/><path class="cls-1" d="M406.65,28.51v71.67H392.27V96.65c-3,3.4-7.33,5.23-12.82,5.23-9.42,0-18.05-5.49-18.05-22.88V28.51h14.26V79c0,5.1,3.13,8.63,8.37,8.63s8.24-3.53,8.24-8.63V28.51Z"/><path class="cls-1" d="M480.24,78V41.72h-12V28.51h12V11.25h14.38V28.51h14.91V41.72H494.62V78c0,5.36,3.14,8.89,8.37,8.89h6.54V101.1H503C489.13,101.1,480.24,92.47,480.24,78Z"/><path class="cls-1" d="M551.12,27.6V42H543.4c-5.23,0-8.37,2.75-8.37,7.85v50.35H520.77V28.51H535v4.32a16.93,16.93,0,0,1,12.82-5.23Z"/><path class="cls-1" d="M610.9,28.51l-26.29,95.21H570l6.41-23.14-20-72.07h15.56l11.9,47.74,11.51-47.74Z"/><path class="cls-1" d="M446.44,48.22c-.15-4.92-3.62-7.52-7.53-7.52a7.1,7.1,0,0,0-7.23,7.38c0,2.74.73,5.35,6.22,7.52l8.68,3.47c11,4.19,14.46,12,14.46,20.68a21.73,21.73,0,0,1-22,22.13c-11.57,0-21.41-7.66-22-22.13H431c.58,4,2.46,8.25,8,8.25a8,8,0,0,0,8.25-8c0-4.05-1.74-6.8-7.38-9l-7.09-2.6C423.44,65,417.8,58.06,417.8,48.22c0-12.44,9.83-21.41,21.69-21.41s20.69,9.26,20.83,21.41Z"/></g></g></svg>