<?xml version="1.0" encoding="utf-8"?>
<!-- Generator: Adobe Illustrator 20.0.0, SVG Export Plug-In . SVG Version: 6.00 Build 0)  -->
<svg version="1.1" id="レイヤー_1" xmlns="http://www.w3.org/2000/svg" xmlns:xlink="http://www.w3.org/1999/xlink" x="0px"
	 y="0px" viewBox="0 0 65.3 41.4" style="enable-background:new 0 0 65.3 41.4;" xml:space="preserve">
<style type="text/css">
	.st0{fill:#4CA7C6;}
</style>
<g>
	<path class="st0" d="M7.7,27.6V12h2.2l2.9,8.3h0l2.9-8.3h2.2v15.7h-2.2v-9.5h0l-2.2,6.7h-1.1L10,18.1h0v9.5H7.7z"/>
	<path class="st0" d="M19.9,27.6V12h6.7v2.1h-4.4v4.6h3.9v2.1h-3.9v4.6h4.4v2.2H19.9z"/>
	<path class="st0" d="M28,27.6V12h2.2l3.4,9.4h0V12h2.2v15.7h-2.1l-3.4-9.4h0v9.4H28z"/>
	<path class="st0" d="M45.1,12v12.1c0,0.5-0.1,1-0.3,1.4c-0.2,0.4-0.4,0.8-0.8,1.2c-0.3,0.3-0.7,0.6-1.2,0.8
		c-0.4,0.2-0.9,0.3-1.4,0.3c-0.5,0-1-0.1-1.4-0.3c-0.4-0.2-0.8-0.5-1.2-0.8c-0.3-0.3-0.6-0.7-0.8-1.2c-0.2-0.4-0.3-0.9-0.3-1.4V12
		h2.2v11.9c0,0.6,0.1,1,0.4,1.2s0.6,0.4,1,0.4s0.7-0.1,1-0.4s0.4-0.7,0.4-1.2V12H45.1z"/>
	<path class="st0" d="M46.2,30.4v-1.1h11v1.1H46.2z"/>
</g>
</svg>
