<?xml version="1.0" encoding="utf-8"?>
<!-- Generator: Adobe Illustrator 20.0.0, SVG Export Plug-In . SVG Version: 6.00 Build 0)  -->
<svg version="1.1" id="レイヤー_1" xmlns="http://www.w3.org/2000/svg" xmlns:xlink="http://www.w3.org/1999/xlink" x="0px"
	 y="0px" viewBox="0 0 198 31.5" style="enable-background:new 0 0 198 31.5;" xml:space="preserve">
<style type="text/css">
	.st0{fill:#4CA7C6;}
</style>
<g>
	<path class="st0" d="M18.2,19.5v1c0,0.5-0.1,1-0.3,1.4c-0.2,0.4-0.4,0.8-0.8,1.2c-0.3,0.3-0.7,0.6-1.2,0.8
		c-0.4,0.2-0.9,0.3-1.4,0.3c-0.4,0-0.9-0.1-1.3-0.2c-0.5-0.1-0.9-0.3-1.2-0.6c-0.4-0.3-0.7-0.7-0.9-1.2c-0.2-0.5-0.4-1.1-0.4-1.8
		v-8.9c0-0.5,0.1-1,0.3-1.5s0.4-0.8,0.8-1.2c0.3-0.3,0.7-0.6,1.2-0.8c0.5-0.2,1-0.3,1.5-0.3c1.1,0,2,0.4,2.7,1.1
		c0.3,0.3,0.6,0.8,0.8,1.2c0.2,0.5,0.3,1,0.3,1.6v0.9h-2.3v-0.8c0-0.5-0.1-0.8-0.4-1.2c-0.3-0.3-0.6-0.5-1-0.5c-0.6,0-1,0.2-1.1,0.5
		C13.1,11,13,11.5,13,12v8.2c0,0.5,0.1,0.9,0.3,1.2c0.2,0.3,0.6,0.5,1.1,0.5c0.2,0,0.3,0,0.5-0.1c0.2-0.1,0.3-0.1,0.5-0.3
		c0.1-0.1,0.2-0.3,0.3-0.5c0.1-0.2,0.1-0.5,0.1-0.8v-0.8H18.2z"/>
	<path class="st0" d="M19.9,11.7c0-0.6,0.1-1.2,0.3-1.7c0.2-0.5,0.5-0.9,0.9-1.2c0.4-0.3,0.8-0.6,1.2-0.7c0.5-0.2,0.9-0.2,1.4-0.2
		c0.5,0,0.9,0.1,1.4,0.2c0.5,0.2,0.9,0.4,1.3,0.7c0.4,0.3,0.7,0.7,0.9,1.2c0.2,0.5,0.3,1.1,0.3,1.7v8.5c0,0.7-0.1,1.3-0.3,1.7
		s-0.5,0.9-0.9,1.2c-0.4,0.3-0.8,0.6-1.3,0.7c-0.5,0.2-0.9,0.2-1.4,0.2c-0.5,0-0.9-0.1-1.4-0.2s-0.9-0.4-1.2-0.7
		c-0.4-0.3-0.7-0.7-0.9-1.2s-0.3-1.1-0.3-1.7V11.7z M22.3,20.3c0,0.6,0.2,1,0.5,1.2c0.3,0.3,0.7,0.4,1.1,0.4s0.8-0.1,1.1-0.4
		c0.3-0.3,0.5-0.7,0.5-1.2v-8.5c0-0.6-0.2-1-0.5-1.2c-0.3-0.3-0.7-0.4-1.1-0.4s-0.8,0.1-1.1,0.4c-0.3,0.3-0.5,0.7-0.5,1.2V20.3z"/>
	<path class="st0" d="M29.6,24.1V7.9h2.2l3.5,9.7h0V7.9h2.3v16.1h-2.2L32,14.4h0v9.7H29.6z"/>
	<path class="st0" d="M41.3,24.1v-14h-2.7V7.9h7.7v2.2h-2.7v14H41.3z"/>
	<path class="st0" d="M46.3,24.1l3.6-16.1h1.9l3.6,16.1h-2.3l-0.7-3.5h-3.1l-0.7,3.5H46.3z M52,18.4l-1.1-5.8h0l-1.1,5.8H52z"/>
	<path class="st0" d="M63.9,19.5v1c0,0.5-0.1,1-0.3,1.4c-0.2,0.4-0.4,0.8-0.8,1.2c-0.3,0.3-0.7,0.6-1.2,0.8
		c-0.4,0.2-0.9,0.3-1.4,0.3c-0.4,0-0.9-0.1-1.3-0.2c-0.5-0.1-0.9-0.3-1.2-0.6c-0.4-0.3-0.7-0.7-0.9-1.2c-0.2-0.5-0.4-1.1-0.4-1.8
		v-8.9c0-0.5,0.1-1,0.3-1.5s0.4-0.8,0.8-1.2c0.3-0.3,0.7-0.6,1.2-0.8c0.5-0.2,1-0.3,1.5-0.3c1.1,0,2,0.4,2.7,1.1
		c0.3,0.3,0.6,0.8,0.8,1.2c0.2,0.5,0.3,1,0.3,1.6v0.9h-2.3v-0.8c0-0.5-0.1-0.8-0.4-1.2c-0.3-0.3-0.6-0.5-1-0.5c-0.6,0-1,0.2-1.1,0.5
		c-0.2,0.4-0.3,0.8-0.3,1.3v8.2c0,0.5,0.1,0.9,0.3,1.2c0.2,0.3,0.6,0.5,1.1,0.5c0.2,0,0.3,0,0.5-0.1c0.2-0.1,0.3-0.1,0.5-0.3
		c0.1-0.1,0.2-0.3,0.3-0.5c0.1-0.2,0.1-0.5,0.1-0.8v-0.8H63.9z"/>
	<path class="st0" d="M67.3,24.1v-14h-2.7V7.9h7.7v2.2h-2.7v14H67.3z"/>
	<path class="st0" d="M76.5,24.2l3-16.4h1.8l-3,16.4H76.5z"/>
	<path class="st0" d="M81.5,24.2l3-16.4h1.8l-3,16.4H81.5z"/>
</g>
</svg>
