<?xml version="1.0" encoding="utf-8"?>
<!-- Generator: Adobe Illustrator 20.0.0, SVG Export Plug-In . SVG Version: 6.00 Build 0)  -->
<svg version="1.1" id="レイヤー_1" xmlns="http://www.w3.org/2000/svg" xmlns:xlink="http://www.w3.org/1999/xlink" x="0px"
	 y="0px" viewBox="0 0 198 31.5" style="enable-background:new 0 0 198 31.5;" xml:space="preserve">
<style type="text/css">
	.st0{fill:#4CA7C6;}
</style>
<g>
	<path class="st0" d="M10.7,24.1V7.9h2.2l3,8.5h0l2.9-8.5h2.2v16.1h-2.3v-9.8h0l-2.3,6.9h-1.2l-2.3-6.9h0v9.8H10.7z"/>
	<path class="st0" d="M23.3,24.1V7.9h6.9v2.2h-4.6v4.7h4V17h-4v4.7h4.6v2.3H23.3z"/>
	<path class="st0" d="M39.2,12.6h-2.3v-0.5c0-0.5-0.1-1-0.4-1.4c-0.2-0.4-0.7-0.6-1.3-0.6c-0.3,0-0.6,0.1-0.8,0.2
		c-0.2,0.1-0.4,0.3-0.5,0.5c-0.1,0.2-0.2,0.4-0.2,0.7c0,0.2-0.1,0.5-0.1,0.8c0,0.3,0,0.6,0,0.8c0,0.2,0.1,0.4,0.2,0.6
		c0.1,0.2,0.2,0.3,0.4,0.4c0.2,0.1,0.4,0.2,0.7,0.4l1.8,0.7c0.5,0.2,0.9,0.4,1.2,0.7c0.3,0.3,0.6,0.6,0.7,0.9
		c0.2,0.4,0.3,0.8,0.3,1.2c0.1,0.5,0.1,1,0.1,1.6c0,0.7-0.1,1.3-0.2,1.9c-0.1,0.6-0.4,1.1-0.7,1.5c-0.3,0.4-0.7,0.8-1.2,1
		c-0.5,0.2-1.1,0.4-1.9,0.4c-0.6,0-1.1-0.1-1.6-0.3c-0.5-0.2-0.9-0.5-1.2-0.8c-0.3-0.3-0.6-0.8-0.8-1.2s-0.3-1-0.3-1.5v-0.9h2.3v0.7
		c0,0.4,0.1,0.8,0.4,1.1c0.2,0.3,0.7,0.5,1.3,0.5c0.4,0,0.7-0.1,0.9-0.2c0.2-0.1,0.4-0.3,0.5-0.5c0.1-0.2,0.2-0.5,0.2-0.8
		c0-0.3,0-0.6,0-1c0-0.4,0-0.8,0-1c0-0.3-0.1-0.5-0.2-0.7c-0.1-0.2-0.2-0.3-0.4-0.4c-0.2-0.1-0.4-0.2-0.7-0.3l-1.7-0.7
		c-1-0.4-1.7-0.9-2-1.6c-0.3-0.7-0.5-1.5-0.5-2.5c0-0.6,0.1-1.2,0.2-1.7c0.2-0.5,0.4-1,0.7-1.4c0.3-0.4,0.7-0.7,1.2-0.9
		c0.5-0.2,1.1-0.4,1.8-0.4c0.6,0,1.1,0.1,1.6,0.3c0.5,0.2,0.9,0.5,1.2,0.8c0.7,0.7,1,1.6,1,2.5V12.6z"/>
	<path class="st0" d="M48.4,12.6h-2.3v-0.5c0-0.5-0.1-1-0.4-1.4c-0.2-0.4-0.7-0.6-1.3-0.6c-0.3,0-0.6,0.1-0.8,0.2
		c-0.2,0.1-0.4,0.3-0.5,0.5c-0.1,0.2-0.2,0.4-0.2,0.7c0,0.2-0.1,0.5-0.1,0.8c0,0.3,0,0.6,0,0.8c0,0.2,0.1,0.4,0.2,0.6
		c0.1,0.2,0.2,0.3,0.4,0.4c0.2,0.1,0.4,0.2,0.7,0.4l1.8,0.7c0.5,0.2,0.9,0.4,1.2,0.7c0.3,0.3,0.6,0.6,0.7,0.9
		c0.2,0.4,0.3,0.8,0.3,1.2c0.1,0.5,0.1,1,0.1,1.6c0,0.7-0.1,1.3-0.2,1.9c-0.1,0.6-0.4,1.1-0.7,1.5c-0.3,0.4-0.7,0.8-1.2,1
		c-0.5,0.2-1.1,0.4-1.9,0.4c-0.6,0-1.1-0.1-1.6-0.3c-0.5-0.2-0.9-0.5-1.2-0.8c-0.3-0.3-0.6-0.8-0.8-1.2s-0.3-1-0.3-1.5v-0.9h2.3v0.7
		c0,0.4,0.1,0.8,0.4,1.1c0.2,0.3,0.7,0.5,1.3,0.5c0.4,0,0.7-0.1,0.9-0.2c0.2-0.1,0.4-0.3,0.5-0.5c0.1-0.2,0.2-0.5,0.2-0.8
		c0-0.3,0-0.6,0-1c0-0.4,0-0.8,0-1c0-0.3-0.1-0.5-0.2-0.7c-0.1-0.2-0.2-0.3-0.4-0.4c-0.2-0.1-0.4-0.2-0.7-0.3l-1.7-0.7
		c-1-0.4-1.7-0.9-2-1.6c-0.3-0.7-0.5-1.5-0.5-2.5c0-0.6,0.1-1.2,0.2-1.7c0.2-0.5,0.4-1,0.7-1.4c0.3-0.4,0.7-0.7,1.2-0.9
		c0.5-0.2,1.1-0.4,1.8-0.4c0.6,0,1.1,0.1,1.6,0.3C46.6,8.3,47,8.6,47.3,9c0.7,0.7,1,1.6,1,2.5V12.6z"/>
	<path class="st0" d="M49.1,24.1l3.6-16.1h1.9l3.6,16.1h-2.3l-0.7-3.5H52l-0.7,3.5H49.1z M54.8,18.4l-1.1-5.8h0l-1.1,5.8H54.8z"/>
	<path class="st0" d="M59.2,11.8c0-0.6,0.1-1.2,0.3-1.7c0.2-0.5,0.5-0.9,0.9-1.2c0.4-0.3,0.8-0.6,1.2-0.7c0.5-0.2,0.9-0.2,1.4-0.2
		c0.5,0,0.9,0.1,1.4,0.2c0.5,0.2,0.9,0.4,1.3,0.7c0.4,0.3,0.7,0.7,0.9,1.2c0.2,0.5,0.3,1.1,0.3,1.7v0.8h-2.3v-0.8
		c0-0.6-0.2-1-0.5-1.2c-0.3-0.3-0.7-0.4-1.1-0.4s-0.8,0.1-1.1,0.4c-0.3,0.3-0.5,0.7-0.5,1.2v8.5c0,0.6,0.2,1,0.5,1.2
		c0.3,0.3,0.7,0.4,1.1,0.4s0.8-0.1,1.1-0.4c0.3-0.3,0.5-0.7,0.5-1.2v-3h-1.8v-2h4.1v5.1c0,0.7-0.1,1.3-0.3,1.7s-0.5,0.9-0.9,1.2
		c-0.4,0.3-0.8,0.6-1.3,0.7c-0.5,0.2-0.9,0.2-1.4,0.2c-0.5,0-0.9-0.1-1.4-0.2s-0.9-0.4-1.2-0.7c-0.4-0.3-0.7-0.7-0.9-1.2
		s-0.3-1.1-0.3-1.7V11.8z"/>
	<path class="st0" d="M69,24.1V7.9h6.9v2.2h-4.6v4.7h4V17h-4v4.7h4.6v2.3H69z"/>
	<path class="st0" d="M80.6,24.2l3-16.4h1.8l-3,16.4H80.6z"/>
	<path class="st0" d="M85.6,24.2l3-16.4h1.8l-3,16.4H85.6z"/>
</g>
</svg>
