<?xml version="1.0" encoding="utf-8"?>
<!-- Generator: Adobe Illustrator 20.0.0, SVG Export Plug-In . SVG Version: 6.00 Build 0)  -->
<svg version="1.1" id="レイヤー_1" xmlns="http://www.w3.org/2000/svg" xmlns:xlink="http://www.w3.org/1999/xlink" x="0px"
	 y="0px" viewBox="0 0 198 31.5" style="enable-background:new 0 0 198 31.5;" xml:space="preserve">
<style type="text/css">
	.st0{fill:#4CA7C6;}
</style>
<g>
	<path class="st0" d="M10.7,11.8c0-0.6,0.1-1.2,0.3-1.7c0.2-0.5,0.5-0.9,0.9-1.2c0.4-0.3,0.8-0.6,1.2-0.7c0.5-0.2,0.9-0.2,1.4-0.2
		c0.5,0,0.9,0.1,1.4,0.2c0.5,0.2,0.9,0.4,1.3,0.7c0.4,0.3,0.7,0.7,0.9,1.2c0.2,0.5,0.3,1.1,0.3,1.7v8.5c0,0.7-0.1,1.3-0.3,1.7
		s-0.5,0.9-0.9,1.2c-0.4,0.3-0.8,0.6-1.3,0.7c-0.5,0.2-0.9,0.2-1.4,0.2c-0.5,0-0.9-0.1-1.4-0.2s-0.9-0.4-1.2-0.7
		c-0.4-0.3-0.7-0.7-0.9-1.2s-0.3-1.1-0.3-1.7V11.8z M13,20.3c0,0.6,0.2,1,0.5,1.2c0.3,0.3,0.7,0.4,1.1,0.4s0.8-0.1,1.1-0.4
		c0.3-0.3,0.5-0.7,0.5-1.2v-8.5c0-0.6-0.2-1-0.5-1.2c-0.3-0.3-0.7-0.4-1.1-0.4s-0.8,0.1-1.1,0.4c-0.3,0.3-0.5,0.7-0.5,1.2V20.3z"/>
	<path class="st0" d="M28,7.9v12.5c0,0.5-0.1,1-0.3,1.5c-0.2,0.4-0.5,0.8-0.8,1.2c-0.3,0.3-0.7,0.6-1.2,0.8
		c-0.5,0.2-0.9,0.3-1.4,0.3s-1-0.1-1.4-0.3c-0.4-0.2-0.8-0.5-1.2-0.8c-0.3-0.3-0.6-0.7-0.8-1.2c-0.2-0.4-0.3-0.9-0.3-1.5V7.9h2.3
		v12.3c0,0.6,0.1,1,0.4,1.3c0.3,0.3,0.6,0.4,1,0.4c0.4,0,0.7-0.1,1-0.4c0.3-0.3,0.4-0.7,0.4-1.3V7.9H28z"/>
	<path class="st0" d="M30.2,24.1V7.9h3.7c2.7,0,4.1,1.6,4.1,4.7c0,1-0.1,1.8-0.4,2.4c-0.3,0.7-0.8,1.2-1.6,1.6l2.5,7.4H36l-2.2-6.9
		h-1.4v6.9H30.2z M32.5,10.1v5h1.3c0.4,0,0.7-0.1,1-0.2c0.2-0.1,0.4-0.3,0.6-0.5c0.1-0.2,0.2-0.5,0.2-0.8c0-0.3,0.1-0.7,0.1-1.1
		s0-0.8-0.1-1.1c0-0.3-0.1-0.6-0.3-0.8c-0.3-0.4-0.8-0.6-1.6-0.6H32.5z"/>
	<path class="st0" d="M44,24.1V7.9h3.5c0.6,0,1.2,0.1,1.7,0.2c0.5,0.2,0.9,0.5,1.3,0.9c0.4,0.4,0.7,0.9,0.8,1.5
		c0.2,0.6,0.2,1.3,0.2,2.3c0,0.7,0,1.3-0.1,1.8c-0.1,0.5-0.3,1-0.5,1.4c-0.3,0.5-0.7,0.9-1.3,1.2c-0.5,0.3-1.2,0.4-2.1,0.4h-1.2v6.3
		H44z M46.3,10.1v5.5h1.1c0.5,0,0.8-0.1,1.1-0.2c0.3-0.1,0.4-0.3,0.6-0.6c0.1-0.2,0.2-0.5,0.2-0.8c0-0.3,0-0.7,0-1.1
		c0-0.4,0-0.7,0-1.1c0-0.3-0.1-0.6-0.2-0.9c-0.1-0.3-0.3-0.5-0.5-0.6c-0.2-0.1-0.6-0.2-1-0.2H46.3z"/>
	<path class="st0" d="M53.1,11.8c0-0.6,0.1-1.2,0.3-1.7c0.2-0.5,0.5-0.9,0.9-1.2c0.4-0.3,0.8-0.6,1.2-0.7C56,7.9,56.5,7.8,57,7.8
		c0.5,0,0.9,0.1,1.4,0.2c0.5,0.2,0.9,0.4,1.3,0.7c0.4,0.3,0.7,0.7,0.9,1.2c0.2,0.5,0.3,1.1,0.3,1.7v8.5c0,0.7-0.1,1.3-0.3,1.7
		s-0.5,0.9-0.9,1.2c-0.4,0.3-0.8,0.6-1.3,0.7c-0.5,0.2-0.9,0.2-1.4,0.2c-0.5,0-0.9-0.1-1.4-0.2s-0.9-0.4-1.2-0.7
		c-0.4-0.3-0.7-0.7-0.9-1.2s-0.3-1.1-0.3-1.7V11.8z M55.4,20.3c0,0.6,0.2,1,0.5,1.2c0.3,0.3,0.7,0.4,1.1,0.4s0.8-0.1,1.1-0.4
		c0.3-0.3,0.5-0.7,0.5-1.2v-8.5c0-0.6-0.2-1-0.5-1.2c-0.3-0.3-0.7-0.4-1.1-0.4s-0.8,0.1-1.1,0.4c-0.3,0.3-0.5,0.7-0.5,1.2V20.3z"/>
	<path class="st0" d="M62.9,24.1V7.9h2.3v13.8h4.6v2.3H62.9z"/>
	<path class="st0" d="M71.3,24.1V7.9h2.3v16.1H71.3z"/>
	<path class="st0" d="M83.2,19.5v1c0,0.5-0.1,1-0.3,1.4c-0.2,0.4-0.4,0.8-0.8,1.2c-0.3,0.3-0.7,0.6-1.2,0.8
		c-0.4,0.2-0.9,0.3-1.4,0.3c-0.4,0-0.9-0.1-1.3-0.2s-0.9-0.3-1.2-0.6c-0.4-0.3-0.7-0.7-0.9-1.2c-0.2-0.5-0.4-1.1-0.4-1.8v-8.9
		c0-0.5,0.1-1,0.3-1.5s0.4-0.8,0.8-1.2c0.3-0.3,0.7-0.6,1.2-0.8c0.5-0.2,1-0.3,1.5-0.3c1.1,0,2,0.4,2.7,1.1c0.3,0.3,0.6,0.8,0.8,1.2
		c0.2,0.5,0.3,1,0.3,1.6v0.9h-2.3v-0.8c0-0.5-0.1-0.8-0.4-1.2c-0.3-0.3-0.6-0.5-1-0.5c-0.6,0-1,0.2-1.1,0.5
		c-0.2,0.4-0.3,0.8-0.3,1.3v8.2c0,0.5,0.1,0.9,0.3,1.2c0.2,0.3,0.6,0.5,1.1,0.5c0.2,0,0.3,0,0.5-0.1c0.2-0.1,0.3-0.1,0.5-0.3
		c0.1-0.1,0.2-0.3,0.3-0.5c0.1-0.2,0.1-0.5,0.1-0.8v-0.8H83.2z"/>
	<path class="st0" d="M87.3,24.1v-6.8l-3.2-9.3h2.4l1.9,6.4h0l1.9-6.4h2.4l-3.2,9.3v6.8H87.3z"/>
	<path class="st0" d="M97.1,24.2l3-16.4h1.8l-3,16.4H97.1z"/>
	<path class="st0" d="M102.2,24.2l3-16.4h1.8l-3,16.4H102.2z"/>
</g>
</svg>
