<?xml version="1.0" encoding="utf-8"?>
<!-- Generator: Adobe Illustrator 20.0.0, SVG Export Plug-In . SVG Version: 6.00 Build 0)  -->
<svg version="1.1" id="レイヤー_1" xmlns="http://www.w3.org/2000/svg" xmlns:xlink="http://www.w3.org/1999/xlink" x="0px"
	 y="0px" viewBox="0 0 198 31.5" style="enable-background:new 0 0 198 31.5;" xml:space="preserve">
<style type="text/css">
	.st0{fill:#4CA7C6;}
</style>
<g>
	<path class="st0" d="M10.7,11.8c0-0.6,0.1-1.2,0.3-1.7c0.2-0.5,0.5-0.9,0.9-1.2c0.4-0.3,0.8-0.6,1.2-0.7c0.5-0.2,0.9-0.2,1.4-0.2
		c0.5,0,0.9,0.1,1.4,0.2c0.5,0.2,0.9,0.4,1.3,0.7c0.4,0.3,0.7,0.7,0.9,1.2c0.2,0.5,0.3,1.1,0.3,1.7v8.5c0,0.7-0.1,1.3-0.3,1.7
		s-0.5,0.9-0.9,1.2c-0.4,0.3-0.8,0.6-1.3,0.7c-0.5,0.2-0.9,0.2-1.4,0.2c-0.5,0-0.9-0.1-1.4-0.2s-0.9-0.4-1.2-0.7
		c-0.4-0.3-0.7-0.7-0.9-1.2s-0.3-1.1-0.3-1.7V11.8z M13,20.3c0,0.6,0.2,1,0.5,1.2c0.3,0.3,0.7,0.4,1.1,0.4s0.8-0.1,1.1-0.4
		c0.3-0.3,0.5-0.7,0.5-1.2v-8.5c0-0.6-0.2-1-0.5-1.2c-0.3-0.3-0.7-0.4-1.1-0.4s-0.8,0.1-1.1,0.4c-0.3,0.3-0.5,0.7-0.5,1.2V20.3z"/>
	<path class="st0" d="M28,7.9v12.5c0,0.5-0.1,1-0.3,1.5c-0.2,0.4-0.5,0.8-0.8,1.2c-0.3,0.3-0.7,0.6-1.2,0.8
		c-0.5,0.2-0.9,0.3-1.4,0.3s-1-0.1-1.4-0.3c-0.4-0.2-0.8-0.5-1.2-0.8c-0.3-0.3-0.6-0.7-0.8-1.2c-0.2-0.4-0.3-0.9-0.3-1.5V7.9h2.3
		v12.3c0,0.6,0.1,1,0.4,1.3c0.3,0.3,0.6,0.4,1,0.4c0.4,0,0.7-0.1,1-0.4c0.3-0.3,0.4-0.7,0.4-1.3V7.9H28z"/>
	<path class="st0" d="M30.2,24.1V7.9h3.7c2.7,0,4.1,1.6,4.1,4.7c0,1-0.1,1.8-0.4,2.4c-0.3,0.7-0.8,1.2-1.6,1.6l2.5,7.4H36l-2.2-6.9
		h-1.4v6.9H30.2z M32.5,10.1v5h1.3c0.4,0,0.7-0.1,1-0.2c0.2-0.1,0.4-0.3,0.6-0.5c0.1-0.2,0.2-0.5,0.2-0.8c0-0.3,0.1-0.7,0.1-1.1
		s0-0.8-0.1-1.1c0-0.3-0.1-0.6-0.3-0.8c-0.3-0.4-0.8-0.6-1.6-0.6H32.5z"/>
	<path class="st0" d="M44,24.1V7.9h3.4c0.7,0,1.4,0.1,1.9,0.3s0.9,0.5,1.3,0.9c0.3,0.4,0.6,0.8,0.7,1.3c0.1,0.5,0.2,1,0.2,1.5v0.6
		c0,0.4,0,0.8-0.1,1.1c-0.1,0.3-0.2,0.6-0.3,0.8c-0.3,0.4-0.6,0.8-1.2,1.1c0.5,0.3,0.9,0.6,1.2,1.1c0.3,0.5,0.4,1.2,0.4,2v0.9
		c0,1.4-0.3,2.5-1,3.3c-0.7,0.8-1.8,1.1-3.3,1.1H44z M46.3,10.1v4.4h1c0.8,0,1.3-0.2,1.6-0.6c0.3-0.4,0.4-0.9,0.4-1.7
		c0-0.7-0.1-1.3-0.4-1.6c-0.3-0.4-0.8-0.5-1.6-0.5H46.3z M46.3,16.6v5.2h1c0.5,0,0.8-0.1,1.1-0.2c0.3-0.1,0.5-0.3,0.6-0.6
		c0.1-0.2,0.2-0.5,0.2-0.9c0-0.3,0-0.7,0-1.1c0-0.4,0-0.8-0.1-1.1c0-0.3-0.1-0.6-0.3-0.8c-0.2-0.2-0.4-0.4-0.6-0.5
		c-0.3-0.1-0.6-0.1-1-0.1H46.3z"/>
	<path class="st0" d="M61.2,7.9v12.5c0,0.5-0.1,1-0.3,1.5c-0.2,0.4-0.5,0.8-0.8,1.2c-0.3,0.3-0.7,0.6-1.2,0.8
		c-0.5,0.2-0.9,0.3-1.4,0.3s-1-0.1-1.4-0.3c-0.4-0.2-0.8-0.5-1.2-0.8c-0.3-0.3-0.6-0.7-0.8-1.2c-0.2-0.4-0.3-0.9-0.3-1.5V7.9H56
		v12.3c0,0.6,0.1,1,0.4,1.3c0.3,0.3,0.6,0.4,1,0.4c0.4,0,0.7-0.1,1-0.4c0.3-0.3,0.4-0.7,0.4-1.3V7.9H61.2z"/>
	<path class="st0" d="M70.8,12.6h-2.3v-0.5c0-0.5-0.1-1-0.4-1.4c-0.2-0.4-0.7-0.6-1.3-0.6c-0.3,0-0.6,0.1-0.8,0.2
		c-0.2,0.1-0.4,0.3-0.5,0.5c-0.1,0.2-0.2,0.4-0.2,0.7c0,0.2-0.1,0.5-0.1,0.8c0,0.3,0,0.6,0,0.8c0,0.2,0.1,0.4,0.2,0.6
		c0.1,0.2,0.2,0.3,0.4,0.4c0.2,0.1,0.4,0.2,0.7,0.4l1.8,0.7c0.5,0.2,0.9,0.4,1.2,0.7s0.6,0.6,0.7,0.9c0.2,0.4,0.3,0.8,0.3,1.2
		c0.1,0.5,0.1,1,0.1,1.6c0,0.7-0.1,1.3-0.2,1.9c-0.1,0.6-0.4,1.1-0.7,1.5c-0.3,0.4-0.7,0.8-1.2,1c-0.5,0.2-1.1,0.4-1.9,0.4
		c-0.6,0-1.1-0.1-1.6-0.3c-0.5-0.2-0.9-0.5-1.2-0.8c-0.3-0.3-0.6-0.8-0.8-1.2s-0.3-1-0.3-1.5v-0.9h2.3v0.7c0,0.4,0.1,0.8,0.4,1.1
		c0.2,0.3,0.7,0.5,1.3,0.5c0.4,0,0.7-0.1,0.9-0.2c0.2-0.1,0.4-0.3,0.5-0.5c0.1-0.2,0.2-0.5,0.2-0.8s0-0.6,0-1c0-0.4,0-0.8,0-1
		c0-0.3-0.1-0.5-0.2-0.7c-0.1-0.2-0.2-0.3-0.4-0.4c-0.2-0.1-0.4-0.2-0.7-0.3l-1.7-0.7c-1-0.4-1.7-0.9-2-1.6
		c-0.3-0.7-0.5-1.5-0.5-2.5c0-0.6,0.1-1.2,0.2-1.7c0.2-0.5,0.4-1,0.7-1.4c0.3-0.4,0.7-0.7,1.2-0.9c0.5-0.2,1.1-0.4,1.8-0.4
		c0.6,0,1.1,0.1,1.6,0.3C69,8.3,69.4,8.6,69.8,9c0.7,0.7,1,1.6,1,2.5V12.6z"/>
	<path class="st0" d="M72.6,24.1V7.9h2.3v16.1H72.6z"/>
	<path class="st0" d="M77.1,24.1V7.9h2.2l3.5,9.7h0V7.9h2.3v16.1h-2.2l-3.5-9.7h0v9.7H77.1z"/>
	<path class="st0" d="M87.2,24.1V7.9h6.9v2.2h-4.6v4.7h4V17h-4v4.7h4.6v2.3H87.2z"/>
	<path class="st0" d="M103.1,12.6h-2.3v-0.5c0-0.5-0.1-1-0.4-1.4c-0.2-0.4-0.7-0.6-1.3-0.6c-0.3,0-0.6,0.1-0.8,0.2
		c-0.2,0.1-0.4,0.3-0.5,0.5c-0.1,0.2-0.2,0.4-0.2,0.7s-0.1,0.5-0.1,0.8c0,0.3,0,0.6,0,0.8c0,0.2,0.1,0.4,0.2,0.6
		c0.1,0.2,0.2,0.3,0.4,0.4c0.2,0.1,0.4,0.2,0.7,0.4l1.8,0.7c0.5,0.2,0.9,0.4,1.2,0.7c0.3,0.3,0.6,0.6,0.7,0.9
		c0.2,0.4,0.3,0.8,0.3,1.2c0.1,0.5,0.1,1,0.1,1.6c0,0.7-0.1,1.3-0.2,1.9c-0.1,0.6-0.4,1.1-0.7,1.5c-0.3,0.4-0.7,0.8-1.2,1
		s-1.1,0.4-1.9,0.4c-0.6,0-1.1-0.1-1.6-0.3c-0.5-0.2-0.9-0.5-1.2-0.8c-0.3-0.3-0.6-0.8-0.8-1.2c-0.2-0.5-0.3-1-0.3-1.5v-0.9h2.3v0.7
		c0,0.4,0.1,0.8,0.4,1.1c0.2,0.3,0.7,0.5,1.3,0.5c0.4,0,0.7-0.1,0.9-0.2s0.4-0.3,0.5-0.5c0.1-0.2,0.2-0.5,0.2-0.8c0-0.3,0-0.6,0-1
		c0-0.4,0-0.8,0-1c0-0.3-0.1-0.5-0.2-0.7c-0.1-0.2-0.2-0.3-0.4-0.4s-0.4-0.2-0.7-0.3l-1.7-0.7c-1-0.4-1.7-0.9-2-1.6
		c-0.3-0.7-0.5-1.5-0.5-2.5c0-0.6,0.1-1.2,0.2-1.7c0.2-0.5,0.4-1,0.7-1.4c0.3-0.4,0.7-0.7,1.2-0.9c0.5-0.2,1.1-0.4,1.8-0.4
		c0.6,0,1.1,0.1,1.6,0.3c0.5,0.2,0.9,0.5,1.2,0.8c0.7,0.7,1,1.6,1,2.5V12.6z"/>
	<path class="st0" d="M112.3,12.6h-2.3v-0.5c0-0.5-0.1-1-0.4-1.4c-0.2-0.4-0.7-0.6-1.3-0.6c-0.3,0-0.6,0.1-0.8,0.2
		c-0.2,0.1-0.4,0.3-0.5,0.5c-0.1,0.2-0.2,0.4-0.2,0.7s-0.1,0.5-0.1,0.8c0,0.3,0,0.6,0,0.8c0,0.2,0.1,0.4,0.2,0.6
		c0.1,0.2,0.2,0.3,0.4,0.4c0.2,0.1,0.4,0.2,0.7,0.4l1.8,0.7c0.5,0.2,0.9,0.4,1.2,0.7c0.3,0.3,0.6,0.6,0.7,0.9
		c0.2,0.4,0.3,0.8,0.3,1.2c0.1,0.5,0.1,1,0.1,1.6c0,0.7-0.1,1.3-0.2,1.9c-0.1,0.6-0.4,1.1-0.7,1.5c-0.3,0.4-0.7,0.8-1.2,1
		s-1.1,0.4-1.9,0.4c-0.6,0-1.1-0.1-1.6-0.3c-0.5-0.2-0.9-0.5-1.2-0.8c-0.3-0.3-0.6-0.8-0.8-1.2c-0.2-0.5-0.3-1-0.3-1.5v-0.9h2.3v0.7
		c0,0.4,0.1,0.8,0.4,1.1c0.2,0.3,0.7,0.5,1.3,0.5c0.4,0,0.7-0.1,0.9-0.2s0.4-0.3,0.5-0.5c0.1-0.2,0.2-0.5,0.2-0.8c0-0.3,0-0.6,0-1
		c0-0.4,0-0.8,0-1c0-0.3-0.1-0.5-0.2-0.7c-0.1-0.2-0.2-0.3-0.4-0.4s-0.4-0.2-0.7-0.3l-1.7-0.7c-1-0.4-1.7-0.9-2-1.6
		c-0.3-0.7-0.5-1.5-0.5-2.5c0-0.6,0.1-1.2,0.2-1.7c0.2-0.5,0.4-1,0.7-1.4c0.3-0.4,0.7-0.7,1.2-0.9c0.5-0.2,1.1-0.4,1.8-0.4
		c0.6,0,1.1,0.1,1.6,0.3c0.5,0.2,0.9,0.5,1.2,0.8c0.7,0.7,1,1.6,1,2.5V12.6z"/>
	<path class="st0" d="M117.2,24.2l3-16.4h1.8l-3,16.4H117.2z"/>
	<path class="st0" d="M122.2,24.2l3-16.4h1.8l-3,16.4H122.2z"/>
</g>
</svg>
