<?xml version="1.0" encoding="utf-8"?>
<!-- Generator: Adobe Illustrator 20.0.0, SVG Export Plug-In . SVG Version: 6.00 Build 0)  -->
<svg version="1.1" id="レイヤー_1" xmlns="http://www.w3.org/2000/svg" xmlns:xlink="http://www.w3.org/1999/xlink" x="0px"
	 y="0px" viewBox="0 0 46.2 31.5" style="enable-background:new 0 0 46.2 31.5;" xml:space="preserve">
<style type="text/css">
	.st0{fill:#4CA7C6;}
</style>
<g>
	<path class="st0" d="M13.9,23.9V10h-2.7V7.8h7.6V10h-2.7v13.9H13.9z"/>
	<path class="st0" d="M19.7,11.6c0-0.6,0.1-1.2,0.3-1.7C20.3,9.4,20.6,9,21,8.7c0.4-0.3,0.8-0.6,1.2-0.7c0.5-0.2,0.9-0.2,1.4-0.2
		c0.5,0,0.9,0.1,1.4,0.2c0.5,0.2,0.9,0.4,1.3,0.7c0.4,0.3,0.7,0.7,0.9,1.2c0.2,0.5,0.3,1.1,0.3,1.7v8.5c0,0.7-0.1,1.3-0.3,1.7
		c-0.2,0.5-0.5,0.9-0.9,1.2c-0.4,0.3-0.8,0.6-1.3,0.7c-0.5,0.2-0.9,0.2-1.4,0.2c-0.5,0-0.9-0.1-1.4-0.2c-0.5-0.2-0.9-0.4-1.2-0.7
		c-0.4-0.3-0.7-0.7-0.9-1.2c-0.2-0.5-0.3-1.1-0.3-1.7V11.6z M22,20.1c0,0.6,0.2,1,0.5,1.2c0.3,0.3,0.7,0.4,1.1,0.4
		c0.4,0,0.8-0.1,1.1-0.4c0.3-0.3,0.5-0.7,0.5-1.2v-8.5c0-0.6-0.2-1-0.5-1.2C24.4,10.1,24,10,23.6,10c-0.4,0-0.8,0.1-1.1,0.4
		c-0.3,0.3-0.5,0.7-0.5,1.2V20.1z"/>
	<path class="st0" d="M29.5,23.9V7.8h3.5c0.6,0,1.2,0.1,1.7,0.2c0.5,0.2,0.9,0.5,1.3,0.9c0.4,0.4,0.7,0.9,0.8,1.5
		c0.2,0.6,0.2,1.3,0.2,2.3c0,0.7,0,1.3-0.1,1.8c-0.1,0.5-0.3,1-0.5,1.4c-0.3,0.5-0.7,0.9-1.3,1.2c-0.5,0.3-1.2,0.4-2.1,0.4h-1.2v6.3
		H29.5z M31.8,10v5.5h1.1c0.5,0,0.8-0.1,1.1-0.2c0.3-0.1,0.4-0.3,0.6-0.6c0.1-0.2,0.2-0.5,0.2-0.8c0-0.3,0-0.7,0-1.1
		c0-0.4,0-0.7,0-1.1c0-0.3-0.1-0.6-0.2-0.9c-0.1-0.3-0.3-0.5-0.5-0.6c-0.2-0.1-0.6-0.2-1-0.2H31.8z"/>
</g>
</svg>
