<?xml version="1.0" encoding="utf-8"?>
<!-- Generator: Adobe Illustrator 20.0.0, SVG Export Plug-In . SVG Version: 6.00 Build 0)  -->
<svg version="1.1" id="レイヤー_1" xmlns="http://www.w3.org/2000/svg" xmlns:xlink="http://www.w3.org/1999/xlink" x="0px"
	 y="0px" viewBox="0 0 198 31.5" style="enable-background:new 0 0 198 31.5;" xml:space="preserve">
<style type="text/css">
	.st0{fill:#4CA7C6;}
</style>
<g>
	<path class="st0" d="M18.2,19.5v1c0,0.5-0.1,1-0.3,1.4c-0.2,0.4-0.4,0.8-0.8,1.2c-0.3,0.3-0.7,0.6-1.2,0.8
		c-0.4,0.2-0.9,0.3-1.4,0.3c-0.4,0-0.9-0.1-1.3-0.2s-0.9-0.3-1.2-0.6c-0.4-0.3-0.7-0.7-0.9-1.2c-0.2-0.5-0.4-1.1-0.4-1.8v-8.9
		c0-0.5,0.1-1,0.3-1.5s0.4-0.8,0.8-1.2c0.3-0.3,0.7-0.6,1.2-0.8c0.5-0.2,1-0.3,1.5-0.3c1.1,0,2,0.4,2.7,1.1c0.3,0.3,0.6,0.8,0.8,1.2
		c0.2,0.5,0.3,1,0.3,1.6v0.9h-2.3v-0.8c0-0.5-0.1-0.8-0.4-1.2c-0.3-0.3-0.6-0.5-1-0.5c-0.6,0-1,0.2-1.1,0.5C13.1,11,13,11.5,13,12
		v8.2c0,0.5,0.1,0.9,0.3,1.2c0.2,0.3,0.6,0.5,1.1,0.5c0.2,0,0.3,0,0.5-0.1c0.2-0.1,0.3-0.1,0.5-0.3c0.1-0.1,0.2-0.3,0.3-0.5
		s0.1-0.5,0.1-0.8v-0.8H18.2z"/>
	<path class="st0" d="M19.9,11.7c0-0.6,0.1-1.2,0.3-1.7c0.2-0.5,0.5-0.9,0.9-1.2c0.4-0.3,0.8-0.6,1.2-0.7c0.5-0.2,0.9-0.2,1.4-0.2
		c0.5,0,0.9,0.1,1.4,0.2c0.5,0.2,0.9,0.4,1.3,0.7c0.4,0.3,0.7,0.7,0.9,1.2c0.2,0.5,0.3,1.1,0.3,1.7v8.5c0,0.7-0.1,1.3-0.3,1.7
		c-0.2,0.5-0.5,0.9-0.9,1.2c-0.4,0.3-0.8,0.6-1.3,0.7c-0.5,0.2-0.9,0.2-1.4,0.2c-0.5,0-0.9-0.1-1.4-0.2s-0.9-0.4-1.2-0.7
		c-0.4-0.3-0.7-0.7-0.9-1.2c-0.2-0.5-0.3-1.1-0.3-1.7V11.7z M22.3,20.3c0,0.6,0.2,1,0.5,1.2c0.3,0.3,0.7,0.4,1.1,0.4
		s0.8-0.1,1.1-0.4c0.3-0.3,0.5-0.7,0.5-1.2v-8.5c0-0.6-0.2-1-0.5-1.2c-0.3-0.3-0.7-0.4-1.1-0.4s-0.8,0.1-1.1,0.4
		c-0.3,0.3-0.5,0.7-0.5,1.2V20.3z"/>
	<path class="st0" d="M29.7,24.1V7.9h2.2l3,8.5h0l2.9-8.5h2.2v16.1h-2.3v-9.8h0l-2.3,6.9h-1.2l-2.3-6.9h0v9.8H29.7z"/>
	<path class="st0" d="M42.3,24.1V7.9h3.5c0.6,0,1.2,0.1,1.7,0.2c0.5,0.2,0.9,0.5,1.3,0.9c0.4,0.4,0.7,0.9,0.8,1.5
		c0.2,0.6,0.2,1.3,0.2,2.3c0,0.7,0,1.3-0.1,1.8c-0.1,0.5-0.3,1-0.5,1.4c-0.3,0.5-0.7,0.9-1.3,1.2c-0.5,0.3-1.2,0.4-2.1,0.4h-1.2v6.3
		H42.3z M44.6,10.1v5.5h1.1c0.5,0,0.8-0.1,1.1-0.2c0.3-0.1,0.4-0.3,0.6-0.6c0.1-0.2,0.2-0.5,0.2-0.8c0-0.3,0-0.7,0-1.1
		c0-0.4,0-0.7,0-1.1c0-0.3-0.1-0.6-0.2-0.9c-0.1-0.3-0.3-0.5-0.5-0.6c-0.2-0.1-0.6-0.2-1-0.2H44.6z"/>
	<path class="st0" d="M50.5,24.1l3.6-16.1H56l3.6,16.1h-2.3l-0.7-3.5h-3.1l-0.7,3.5H50.5z M56.2,18.4l-1.1-5.8h0l-1.1,5.8H56.2z"/>
	<path class="st0" d="M60.7,24.1V7.9h2.2l3.5,9.7h0V7.9h2.3v16.1h-2.2L63,14.4h0v9.7H60.7z"/>
	<path class="st0" d="M73,24.1v-6.8l-3.2-9.3h2.4l1.9,6.4h0L76,7.9h2.4l-3.2,9.3v6.8H73z"/>
	<path class="st0" d="M82.9,24.2l3-16.4h1.8l-3,16.4H82.9z"/>
	<path class="st0" d="M87.9,24.2l3-16.4h1.8l-3,16.4H87.9z"/>
</g>
</svg>
