<?xml version="1.0" encoding="utf-8"?>
<!-- Generator: Adobe Illustrator 20.0.0, SVG Export Plug-In . SVG Version: 6.00 Build 0)  -->
<svg version="1.1" id="レイヤー_1" xmlns="http://www.w3.org/2000/svg" xmlns:xlink="http://www.w3.org/1999/xlink" x="0px"
	 y="0px" viewBox="0 0 198 31.5" style="enable-background:new 0 0 198 31.5;" xml:space="preserve">
<style type="text/css">
	.st0{fill:#4CA7C6;}
</style>
<g>
	<path class="st0" d="M10.7,24.1V7.9h3.7c2.7,0,4.1,1.6,4.1,4.7c0,1-0.1,1.8-0.4,2.4c-0.3,0.7-0.8,1.2-1.6,1.6l2.5,7.4h-2.4
		l-2.2-6.9H13v6.9H10.7z M13,10.1v5h1.3c0.4,0,0.7-0.1,1-0.2c0.2-0.1,0.4-0.3,0.6-0.5c0.1-0.2,0.2-0.5,0.2-0.8
		c0-0.3,0.1-0.7,0.1-1.1c0-0.4,0-0.8-0.1-1.1c0-0.3-0.1-0.6-0.3-0.8c-0.3-0.4-0.8-0.6-1.6-0.6H13z"/>
	<path class="st0" d="M20.4,24.1V7.9h6.9v2.2h-4.6v4.7h4V17h-4v4.7h4.6v2.3H20.4z"/>
	<path class="st0" d="M36.1,19.5v1c0,0.5-0.1,1-0.3,1.4c-0.2,0.4-0.4,0.8-0.8,1.2c-0.3,0.3-0.7,0.6-1.2,0.8
		c-0.4,0.2-0.9,0.3-1.4,0.3c-0.4,0-0.9-0.1-1.3-0.2c-0.5-0.1-0.9-0.3-1.2-0.6s-0.7-0.7-0.9-1.2c-0.2-0.5-0.4-1.1-0.4-1.8v-8.9
		c0-0.5,0.1-1,0.3-1.5s0.4-0.8,0.8-1.2c0.3-0.3,0.7-0.6,1.2-0.8c0.5-0.2,1-0.3,1.5-0.3c1.1,0,2,0.4,2.7,1.1c0.3,0.3,0.6,0.8,0.8,1.2
		c0.2,0.5,0.3,1,0.3,1.6v0.9h-2.3v-0.8c0-0.5-0.1-0.8-0.4-1.2c-0.3-0.3-0.6-0.5-1-0.5c-0.6,0-1,0.2-1.1,0.5C31,11,30.9,11.5,30.9,12
		v8.2c0,0.5,0.1,0.9,0.3,1.2c0.2,0.3,0.6,0.5,1.1,0.5c0.2,0,0.3,0,0.5-0.1c0.2-0.1,0.3-0.1,0.5-0.3c0.1-0.1,0.2-0.3,0.3-0.5
		c0.1-0.2,0.1-0.5,0.1-0.8v-0.8H36.1z"/>
	<path class="st0" d="M38,24.1V7.9h3.7c2.7,0,4.1,1.6,4.1,4.7c0,1-0.1,1.8-0.4,2.4c-0.3,0.7-0.8,1.2-1.6,1.6l2.5,7.4h-2.4l-2.2-6.9
		h-1.4v6.9H38z M40.3,10.1v5h1.3c0.4,0,0.7-0.1,1-0.2c0.2-0.1,0.4-0.3,0.6-0.5c0.1-0.2,0.2-0.5,0.2-0.8c0-0.3,0.1-0.7,0.1-1.1
		c0-0.4,0-0.8-0.1-1.1c0-0.3-0.1-0.6-0.3-0.8c-0.3-0.4-0.8-0.6-1.6-0.6H40.3z"/>
	<path class="st0" d="M55.1,7.9v12.5c0,0.5-0.1,1-0.3,1.5c-0.2,0.4-0.5,0.8-0.8,1.2c-0.3,0.3-0.7,0.6-1.2,0.8
		c-0.5,0.2-0.9,0.3-1.4,0.3s-1-0.1-1.4-0.3c-0.4-0.2-0.8-0.5-1.2-0.8c-0.3-0.3-0.6-0.7-0.8-1.2c-0.2-0.4-0.3-0.9-0.3-1.5V7.9h2.3
		v12.3c0,0.6,0.1,1,0.4,1.3c0.3,0.3,0.6,0.4,1,0.4c0.4,0,0.7-0.1,1-0.4c0.3-0.3,0.4-0.7,0.4-1.3V7.9H55.1z"/>
	<path class="st0" d="M57.3,24.1V7.9h2.3v16.1H57.3z"/>
	<path class="st0" d="M63.4,24.1v-14h-2.7V7.9h7.7v2.2h-2.7v14H63.4z"/>
	<path class="st0" d="M72.7,24.2l3-16.4h1.8l-3,16.4H72.7z"/>
	<path class="st0" d="M77.7,24.2l3-16.4h1.8l-3,16.4H77.7z"/>
</g>
</svg>
