<?xml version="1.0" encoding="utf-8"?>
<!-- Generator: Adobe Illustrator 20.0.0, SVG Export Plug-In . SVG Version: 6.00 Build 0)  -->
<svg version="1.1" id="レイヤー_1" xmlns="http://www.w3.org/2000/svg" xmlns:xlink="http://www.w3.org/1999/xlink" x="0px"
	 y="0px" viewBox="0 0 93.4 34.5" style="enable-background:new 0 0 93.4 34.5;" xml:space="preserve">
<style type="text/css">
	.st0{fill:#4CA7C6;}
</style>
<g>
	<path class="st0" d="M28.1,6.9L23.8,28h-2.7L16.8,6.9H20l2.4,14.7h0.1l2.4-14.7H28.1z"/>
	<path class="st0" d="M30,28V6.9h3V28H30z"/>
	<path class="st0" d="M45.7,13h-3v-0.7c0-0.7-0.2-1.3-0.5-1.8s-0.9-0.8-1.6-0.8c-0.4,0-0.8,0.1-1,0.2c-0.3,0.2-0.5,0.4-0.6,0.6
		c-0.2,0.3-0.3,0.5-0.3,0.9c-0.1,0.3-0.1,0.7-0.1,1c0,0.4,0,0.8,0,1c0,0.3,0.1,0.5,0.2,0.7c0.1,0.2,0.3,0.4,0.5,0.6
		c0.2,0.2,0.5,0.3,0.9,0.5l2.3,0.9c0.7,0.3,1.2,0.6,1.6,0.9c0.4,0.3,0.7,0.7,1,1.2c0.2,0.5,0.4,1,0.4,1.6c0.1,0.6,0.1,1.3,0.1,2.1
		c0,0.9-0.1,1.7-0.3,2.5c-0.2,0.8-0.5,1.4-0.9,1.9c-0.4,0.6-1,1-1.6,1.3c-0.7,0.3-1.5,0.5-2.5,0.5c-0.7,0-1.4-0.1-2-0.4
		c-0.6-0.3-1.2-0.6-1.6-1.1c-0.5-0.5-0.8-1-1.1-1.6c-0.3-0.6-0.4-1.3-0.4-2v-1.1h3V23c0,0.6,0.2,1.1,0.5,1.5
		c0.3,0.4,0.9,0.7,1.6,0.7c0.5,0,0.9-0.1,1.2-0.2c0.3-0.1,0.5-0.4,0.7-0.6c0.2-0.3,0.3-0.6,0.3-1c0-0.4,0-0.8,0-1.3
		c0-0.6,0-1-0.1-1.4c0-0.4-0.1-0.6-0.2-0.9c-0.1-0.2-0.3-0.4-0.5-0.5c-0.2-0.1-0.5-0.3-0.9-0.4l-2.2-0.9c-1.3-0.5-2.2-1.2-2.6-2.1
		c-0.4-0.9-0.7-2-0.7-3.3c0-0.8,0.1-1.5,0.3-2.3c0.2-0.7,0.5-1.3,1-1.8c0.4-0.5,0.9-0.9,1.6-1.2c0.6-0.3,1.4-0.5,2.3-0.5
		c0.8,0,1.4,0.1,2.1,0.4c0.6,0.3,1.2,0.6,1.6,1.1c0.9,0.9,1.4,2,1.4,3.3V13z"/>
	<path class="st0" d="M48.1,28V6.9h3V28H48.1z"/>
	<path class="st0" d="M53.9,11.9c0-0.9,0.1-1.6,0.4-2.3C54.6,9,55,8.4,55.5,8c0.5-0.4,1-0.7,1.6-0.9c0.6-0.2,1.2-0.3,1.8-0.3
		c0.6,0,1.2,0.1,1.8,0.3c0.6,0.2,1.2,0.5,1.6,0.9c0.5,0.4,0.9,1,1.2,1.6c0.3,0.7,0.4,1.4,0.4,2.3v11.2c0,0.9-0.1,1.7-0.4,2.3
		c-0.3,0.6-0.7,1.2-1.2,1.6c-0.5,0.4-1,0.8-1.6,1c-0.6,0.2-1.2,0.3-1.8,0.3c-0.6,0-1.2-0.1-1.8-0.3c-0.6-0.2-1.1-0.5-1.6-1
		c-0.5-0.4-0.9-0.9-1.2-1.6c-0.3-0.6-0.4-1.4-0.4-2.3V11.9z M56.9,23.1c0,0.7,0.2,1.3,0.6,1.6c0.4,0.3,0.9,0.5,1.4,0.5
		c0.6,0,1-0.2,1.4-0.5c0.4-0.3,0.6-0.9,0.6-1.6V11.9c0-0.7-0.2-1.3-0.6-1.6c-0.4-0.3-0.9-0.5-1.4-0.5c-0.6,0-1,0.2-1.4,0.5
		c-0.4,0.3-0.6,0.9-0.6,1.6V23.1z"/>
	<path class="st0" d="M66.6,28V6.9h2.9l4.6,12.7h0.1V6.9h3V28h-2.8l-4.6-12.7h-0.1V28H66.6z"/>
</g>
</svg>
