<?xml version="1.0" encoding="utf-8"?>
<!-- Generator: Adobe Illustrator 20.0.0, SVG Export Plug-In . SVG Version: 6.00 Build 0)  -->
<svg version="1.1" id="レイヤー_1" xmlns="http://www.w3.org/2000/svg" xmlns:xlink="http://www.w3.org/1999/xlink" x="0px"
	 y="0px" viewBox="0 0 93.4 34.5" style="enable-background:new 0 0 93.4 34.5;" xml:space="preserve">
<style type="text/css">
	.st0{fill:#4CA7C6;}
</style>
<g>
	<path class="st0" d="M29.3,6.9L24.9,28h-2.7L18,6.9h3.2l2.4,14.7h0.1l2.4-14.7H29.3z"/>
	<path class="st0" d="M29.7,28l4.7-21.1H37L41.7,28h-3l-0.9-4.5h-4.1L32.7,28H29.7z M37.2,20.7L35.7,13h-0.1l-1.5,7.7H37.2z"/>
	<path class="st0" d="M43.2,28V6.9h3V25h6v3H43.2z"/>
	<path class="st0" d="M63.9,6.9v16.4c0,0.7-0.1,1.3-0.4,1.9c-0.2,0.6-0.6,1.1-1.1,1.6c-0.5,0.5-1,0.8-1.6,1.1s-1.2,0.4-1.9,0.4
		c-0.7,0-1.3-0.1-1.9-0.4c-0.6-0.3-1.1-0.6-1.6-1.1c-0.5-0.5-0.8-1-1.1-1.6c-0.3-0.6-0.4-1.2-0.4-1.9V6.9h3V23
		c0,0.8,0.2,1.3,0.5,1.7c0.4,0.4,0.8,0.5,1.3,0.5s1-0.2,1.3-0.5c0.4-0.4,0.5-0.9,0.5-1.7V6.9H63.9z"/>
	<path class="st0" d="M66.8,28V6.9h9v2.8h-6V16H75v2.8h-5.2V25h6v3H66.8z"/>
</g>
</svg>
